<mxfile host="app.diagrams.net" modified="2024-04-01T11:46:28.247Z" agent="Mozilla/5.0 (Windows NT 10.0; Win64; x64) AppleWebKit/537.36 (KHTML, like Gecko) Chrome/123.0.0.0 Safari/537.36" etag="aGzNF0XCO4lgP0PAYmIK" version="24.2.1" type="google">
  <diagram name="Trang-1" id="FnanHxuCzT1QwxAGInLA">
    <mxGraphModel grid="1" page="1" gridSize="10" guides="1" tooltips="1" connect="1" arrows="1" fold="1" pageScale="1" pageWidth="827" pageHeight="1169" math="0" shadow="0">
      <root>
        <mxCell id="0" />
        <mxCell id="1" parent="0" />
        <mxCell id="GTE3j5JlRhrPyVvChkju-1" value="Nhân viên" style="swimlane;startSize=20;whiteSpace=wrap;html=1;" vertex="1" parent="1">
          <mxGeometry x="-660" y="-530" width="560" height="1130" as="geometry" />
        </mxCell>
        <mxCell id="GTE3j5JlRhrPyVvChkju-2" value="" style="points=[[0.145,0.145,0],[0.5,0,0],[0.855,0.145,0],[1,0.5,0],[0.855,0.855,0],[0.5,1,0],[0.145,0.855,0],[0,0.5,0]];shape=mxgraph.bpmn.event;html=1;verticalLabelPosition=bottom;labelBackgroundColor=#ffffff;verticalAlign=top;align=center;perimeter=ellipsePerimeter;outlineConnect=0;aspect=fixed;outline=standard;symbol=general;fillColor=#dae8fc;strokeColor=#6c8ebf;" vertex="1" parent="GTE3j5JlRhrPyVvChkju-1">
          <mxGeometry x="70" y="70" width="30" height="30" as="geometry" />
        </mxCell>
        <mxCell id="GTE3j5JlRhrPyVvChkju-3" value="Nhập ID" style="rounded=1;whiteSpace=wrap;html=1;fillColor=#dae8fc;strokeColor=#6c8ebf;" vertex="1" parent="GTE3j5JlRhrPyVvChkju-1">
          <mxGeometry x="250" y="130" width="120" height="52.5" as="geometry" />
        </mxCell>
        <mxCell id="GTE3j5JlRhrPyVvChkju-4" value="Nhập mật khẩu" style="rounded=1;whiteSpace=wrap;html=1;fillColor=#dae8fc;strokeColor=#6c8ebf;" vertex="1" parent="GTE3j5JlRhrPyVvChkju-1">
          <mxGeometry x="250" y="220" width="120" height="60" as="geometry" />
        </mxCell>
        <mxCell id="GTE3j5JlRhrPyVvChkju-5" style="edgeStyle=orthogonalEdgeStyle;rounded=0;orthogonalLoop=1;jettySize=auto;html=1;" edge="1" parent="GTE3j5JlRhrPyVvChkju-1" source="GTE3j5JlRhrPyVvChkju-3" target="GTE3j5JlRhrPyVvChkju-4">
          <mxGeometry relative="1" as="geometry">
            <mxPoint x="310" y="270" as="targetPoint" />
          </mxGeometry>
        </mxCell>
        <mxCell id="GTE3j5JlRhrPyVvChkju-6" value="Hệ thống&amp;nbsp;" style="swimlane;startSize=20;whiteSpace=wrap;html=1;" vertex="1" parent="1">
          <mxGeometry x="-100" y="-530" width="740" height="1140" as="geometry" />
        </mxCell>
        <mxCell id="GTE3j5JlRhrPyVvChkju-7" style="edgeStyle=orthogonalEdgeStyle;rounded=0;orthogonalLoop=1;jettySize=auto;html=1;entryX=0.417;entryY=0.033;entryDx=0;entryDy=0;entryPerimeter=0;" edge="1" parent="GTE3j5JlRhrPyVvChkju-6" source="GTE3j5JlRhrPyVvChkju-9" target="GTE3j5JlRhrPyVvChkju-11">
          <mxGeometry relative="1" as="geometry">
            <mxPoint x="270" y="195" as="targetPoint" />
          </mxGeometry>
        </mxCell>
        <mxCell id="GTE3j5JlRhrPyVvChkju-8" value="Không hợp lệ&amp;nbsp;" style="edgeLabel;html=1;align=center;verticalAlign=middle;resizable=0;points=[];" connectable="0" vertex="1" parent="GTE3j5JlRhrPyVvChkju-7">
          <mxGeometry x="-0.1347" y="3" relative="1" as="geometry">
            <mxPoint as="offset" />
          </mxGeometry>
        </mxCell>
        <mxCell id="GTE3j5JlRhrPyVvChkju-9" value="" style="points=[[0.25,0.25,0],[0.5,0,0],[0.75,0.25,0],[1,0.5,0],[0.75,0.75,0],[0.5,1,0],[0.25,0.75,0],[0,0.5,0]];shape=mxgraph.bpmn.gateway2;html=1;verticalLabelPosition=bottom;labelBackgroundColor=#ffffff;verticalAlign=top;align=center;perimeter=rhombusPerimeter;outlineConnect=0;outline=none;symbol=none;fillColor=#dae8fc;strokeColor=#6c8ebf;" vertex="1" parent="GTE3j5JlRhrPyVvChkju-6">
          <mxGeometry x="250" y="420" width="50" height="50" as="geometry" />
        </mxCell>
        <mxCell id="GTE3j5JlRhrPyVvChkju-10" value="" style="edgeStyle=orthogonalEdgeStyle;rounded=0;orthogonalLoop=1;jettySize=auto;html=1;" edge="1" parent="GTE3j5JlRhrPyVvChkju-6" source="GTE3j5JlRhrPyVvChkju-11" target="GTE3j5JlRhrPyVvChkju-14">
          <mxGeometry relative="1" as="geometry" />
        </mxCell>
        <mxCell id="GTE3j5JlRhrPyVvChkju-11" value="Thông báo:&quot;Tên đăng nhập hoặc mật khẩu không hợp lệ&quot;" style="points=[[0.25,0,0],[0.5,0,0],[0.75,0,0],[1,0.25,0],[1,0.5,0],[1,0.75,0],[0.75,1,0],[0.5,1,0],[0.25,1,0],[0,0.75,0],[0,0.5,0],[0,0.25,0]];shape=mxgraph.bpmn.task;whiteSpace=wrap;rectStyle=rounded;size=10;html=1;container=1;expand=0;collapsible=0;taskMarker=abstract;fillColor=#dae8fc;strokeColor=#6c8ebf;" vertex="1" parent="GTE3j5JlRhrPyVvChkju-6">
          <mxGeometry x="420" y="490" width="190" height="90" as="geometry" />
        </mxCell>
        <mxCell id="GTE3j5JlRhrPyVvChkju-12" style="edgeStyle=orthogonalEdgeStyle;rounded=0;orthogonalLoop=1;jettySize=auto;html=1;exitX=0;exitY=0.5;exitDx=0;exitDy=0;exitPerimeter=0;entryX=0.593;entryY=0.04;entryDx=0;entryDy=0;entryPerimeter=0;" edge="1" parent="GTE3j5JlRhrPyVvChkju-6" source="GTE3j5JlRhrPyVvChkju-9" target="GTE3j5JlRhrPyVvChkju-16">
          <mxGeometry relative="1" as="geometry">
            <mxPoint x="87.50000000000023" y="570.0000000000002" as="targetPoint" />
            <mxPoint x="70" y="280" as="sourcePoint" />
            <Array as="points">
              <mxPoint x="80" y="445" />
              <mxPoint x="80" y="570" />
              <mxPoint x="81" y="570" />
            </Array>
          </mxGeometry>
        </mxCell>
        <mxCell id="GTE3j5JlRhrPyVvChkju-13" value="Hợp lệ&amp;nbsp;" style="edgeLabel;html=1;align=center;verticalAlign=middle;resizable=0;points=[];" connectable="0" vertex="1" parent="GTE3j5JlRhrPyVvChkju-12">
          <mxGeometry x="-0.4473" y="5" relative="1" as="geometry">
            <mxPoint x="-1" as="offset" />
          </mxGeometry>
        </mxCell>
        <mxCell id="GTE3j5JlRhrPyVvChkju-14" value="" style="points=[[0.145,0.145,0],[0.5,0,0],[0.855,0.145,0],[1,0.5,0],[0.855,0.855,0],[0.5,1,0],[0.145,0.855,0],[0,0.5,0]];shape=mxgraph.bpmn.event;html=1;verticalLabelPosition=bottom;labelBackgroundColor=#ffffff;verticalAlign=top;align=center;perimeter=ellipsePerimeter;outlineConnect=0;aspect=fixed;outline=end;symbol=terminate2;fillColor=#dae8fc;strokeColor=#6c8ebf;" vertex="1" parent="GTE3j5JlRhrPyVvChkju-6">
          <mxGeometry x="492.5" y="700" width="45" height="45" as="geometry" />
        </mxCell>
        <mxCell id="GTE3j5JlRhrPyVvChkju-15" style="edgeStyle=orthogonalEdgeStyle;rounded=0;orthogonalLoop=1;jettySize=auto;html=1;entryX=0.5;entryY=0;entryDx=0;entryDy=0;entryPerimeter=0;" edge="1" parent="GTE3j5JlRhrPyVvChkju-6" source="GTE3j5JlRhrPyVvChkju-11" target="GTE3j5JlRhrPyVvChkju-14">
          <mxGeometry relative="1" as="geometry">
            <mxPoint x="370" y="720" as="targetPoint" />
          </mxGeometry>
        </mxCell>
        <mxCell id="GTE3j5JlRhrPyVvChkju-16" value="Lưu trữ giờ đăng nhập&amp;nbsp;" style="rounded=1;whiteSpace=wrap;html=1;fillColor=#dae8fc;strokeColor=#6c8ebf;" vertex="1" parent="GTE3j5JlRhrPyVvChkju-6">
          <mxGeometry x="10" y="640" width="160" height="90" as="geometry" />
        </mxCell>
        <mxCell id="GTE3j5JlRhrPyVvChkju-17" style="edgeStyle=orthogonalEdgeStyle;rounded=0;orthogonalLoop=1;jettySize=auto;html=1;entryX=0;entryY=0.5;entryDx=0;entryDy=0;" edge="1" parent="GTE3j5JlRhrPyVvChkju-6" source="GTE3j5JlRhrPyVvChkju-16" target="GTE3j5JlRhrPyVvChkju-19">
          <mxGeometry relative="1" as="geometry">
            <mxPoint x="70" y="790" as="targetPoint" />
            <Array as="points">
              <mxPoint x="70" y="940" />
            </Array>
          </mxGeometry>
        </mxCell>
        <mxCell id="GTE3j5JlRhrPyVvChkju-18" style="edgeStyle=orthogonalEdgeStyle;rounded=0;orthogonalLoop=1;jettySize=auto;html=1;entryX=0.5;entryY=1;entryDx=0;entryDy=0;entryPerimeter=0;" edge="1" parent="GTE3j5JlRhrPyVvChkju-6" source="GTE3j5JlRhrPyVvChkju-19" target="GTE3j5JlRhrPyVvChkju-14">
          <mxGeometry relative="1" as="geometry">
            <mxPoint x="420" y="770" as="targetPoint" />
          </mxGeometry>
        </mxCell>
        <mxCell id="GTE3j5JlRhrPyVvChkju-19" value="Hiển thị các thao tác&amp;nbsp;" style="rounded=1;whiteSpace=wrap;html=1;fillColor=#dae8fc;strokeColor=#6c8ebf;" vertex="1" parent="GTE3j5JlRhrPyVvChkju-6">
          <mxGeometry x="232.5" y="890" width="160" height="100" as="geometry" />
        </mxCell>
        <mxCell id="GTE3j5JlRhrPyVvChkju-20" value="Hiển thị màn hình đăng nhập&amp;nbsp;" style="rounded=1;whiteSpace=wrap;html=1;fillColor=#dae8fc;strokeColor=#6c8ebf;" vertex="1" parent="GTE3j5JlRhrPyVvChkju-6">
          <mxGeometry x="175" y="40" width="225" height="90" as="geometry" />
        </mxCell>
        <mxCell id="GTE3j5JlRhrPyVvChkju-21" value="Hệ thống kiểm tra thông tin đăng nhập" style="rounded=1;whiteSpace=wrap;html=1;fillColor=#dae8fc;strokeColor=#6c8ebf;" vertex="1" parent="GTE3j5JlRhrPyVvChkju-6">
          <mxGeometry x="195" y="200" width="235" height="100" as="geometry" />
        </mxCell>
        <mxCell id="GTE3j5JlRhrPyVvChkju-22" style="edgeStyle=orthogonalEdgeStyle;rounded=0;orthogonalLoop=1;jettySize=auto;html=1;entryX=0.5;entryY=0;entryDx=0;entryDy=0;entryPerimeter=0;" edge="1" parent="GTE3j5JlRhrPyVvChkju-6" source="GTE3j5JlRhrPyVvChkju-21" target="GTE3j5JlRhrPyVvChkju-9">
          <mxGeometry relative="1" as="geometry">
            <Array as="points">
              <mxPoint x="275" y="330" />
              <mxPoint x="275" y="330" />
            </Array>
          </mxGeometry>
        </mxCell>
        <mxCell id="GTE3j5JlRhrPyVvChkju-23" style="edgeStyle=orthogonalEdgeStyle;rounded=0;orthogonalLoop=1;jettySize=auto;html=1;entryX=0;entryY=0.5;entryDx=0;entryDy=0;" edge="1" parent="1" source="GTE3j5JlRhrPyVvChkju-2" target="GTE3j5JlRhrPyVvChkju-20">
          <mxGeometry relative="1" as="geometry" />
        </mxCell>
        <mxCell id="GTE3j5JlRhrPyVvChkju-24" style="edgeStyle=orthogonalEdgeStyle;rounded=0;orthogonalLoop=1;jettySize=auto;html=1;" edge="1" parent="1" source="GTE3j5JlRhrPyVvChkju-20" target="GTE3j5JlRhrPyVvChkju-3">
          <mxGeometry relative="1" as="geometry">
            <mxPoint x="-260" y="-375" as="targetPoint" />
            <Array as="points">
              <mxPoint x="110" y="-380" />
              <mxPoint x="-350" y="-380" />
            </Array>
          </mxGeometry>
        </mxCell>
        <mxCell id="GTE3j5JlRhrPyVvChkju-25" style="edgeStyle=orthogonalEdgeStyle;rounded=0;orthogonalLoop=1;jettySize=auto;html=1;exitX=1;exitY=0.5;exitDx=0;exitDy=0;" edge="1" parent="1" source="GTE3j5JlRhrPyVvChkju-4" target="GTE3j5JlRhrPyVvChkju-21">
          <mxGeometry relative="1" as="geometry">
            <mxPoint x="40" y="-280.2727272727275" as="targetPoint" />
          </mxGeometry>
        </mxCell>
      </root>
    </mxGraphModel>
  </diagram>
</mxfile>
